<svg width="1601" height="670" xmlns="http://www.w3.org/2000/svg" xmlns:xlink="http://www.w3.org/1999/xlink" overflow="hidden"><defs><clipPath id="clip0"><rect x="17" y="17" width="1601" height="670"/></clipPath></defs><g clip-path="url(#clip0)" transform="translate(-17 -17)"><path d="M367 39.5005C367 27.0738 377.074 17 389.501 17L613.499 17C625.926 17 636 27.0738 636 39.5005L636 129.499C636 141.926 625.926 152 613.499 152L389.501 152C377.074 152 367 141.926 367 129.499Z" fill="#A9D18E" fill-rule="evenodd"/><text font-family="Arial,Arial_MSFontService,sans-serif" font-weight="700" font-size="21" transform="translate(438.605 65)">Aggregation<tspan font-weight="400" font-size="16" x="-55.2467" y="38">Orders </tspan><tspan font-weight="400" font-size="16" x="-1.91333" y="38">are</tspan><tspan font-weight="400" font-size="16" x="25.5867" y="38">aggregated</tspan><tspan font-weight="400" font-size="16" x="110.587" y="38">by</tspan><tspan font-weight="400" font-size="16" x="131.92" y="38">sellers</tspan><tspan font-weight="400" font-size="16" x="-55.2467" y="57">to</tspan><tspan font-weight="400" font-size="16" x="-37.4133" y="57">get</tspan><tspan font-weight="400" font-size="16" x="-10.7467" y="57">sellers</tspan><tspan font-weight="400" font-size="16" x="35.2534" y="57">‘ </tspan><tspan font-weight="400" font-size="16" x="43.2534" y="57">information</tspan></text><path d="M7.124e-06-2 19.4741-1.99993 19.4741 2.00007-7.124e-06 2ZM17.4741-5.99994 29.4741 0.000104987 17.4741 6.00006Z" transform="matrix(1 0 0 -1 338 85.0001)"/><rect x="18" y="17" width="320" height="135" fill="#B4C7E7"/><text font-family="Arial,Arial_MSFontService,sans-serif" font-weight="700" font-size="21" transform="translate(108.392 51)">Sellers <tspan x="76" y="0">object</tspan><tspan font-weight="400" font-size="16" x="2.58666" y="20">(</tspan><tspan font-weight="400" font-size="16" x="7.92" y="20">topological</tspan><tspan font-weight="400" font-size="16" x="88.42" y="20">space</tspan><tspan font-weight="400" font-size="16" x="130.92" y="20">)</tspan><tspan font-weight="400" font-size="16" x="-80.7467" y="65">List</tspan><tspan font-weight="400" font-size="16" x="-51.4133" y="65">of</tspan><tspan font-weight="400" font-size="16" x="-33.58" y="65">orders</tspan><tspan font-weight="400" font-size="16" x="11.5867" y="65">, </tspan><tspan font-weight="400" font-size="16" x="20.5867" y="65">where</tspan><tspan font-weight="400" font-size="16" x="-80.7467" y="84">order</tspan><tspan font-weight="400" font-size="16" x="-39.08" y="84">=</tspan><tspan font-weight="400" font-size="16" x="-25.2467" y="84">n</tspan><tspan font-weight="400" font-size="16" x="-16.4133" y="84">-</tspan><tspan font-weight="400" font-size="16" x="-11.08" y="84">tuple</tspan><tspan font-weight="400" font-size="16" x="27.92" y="84">containing</tspan><tspan font-weight="400" font-size="16" x="104.92" y="84">kinds</tspan><tspan font-weight="400" font-size="16" x="146.587" y="84">of</tspan><tspan font-weight="400" font-size="16" x="164.42" y="84">values</tspan></text><rect x="660" y="17" width="320" height="135" fill="#B4C7E7"/><text font-family="Arial,Arial_MSFontService,sans-serif" font-weight="700" font-size="21" transform="translate(750.568 51)">Sellers <tspan x="76" y="0">object</tspan><tspan font-weight="400" font-size="16" x="2.58667" y="20">(</tspan><tspan font-weight="400" font-size="16" x="7.91998" y="20">topological</tspan><tspan font-weight="400" font-size="16" x="88.42" y="20">space</tspan><tspan font-weight="400" font-size="16" x="130.92" y="20">)</tspan><tspan font-weight="400" font-size="16" x="-80.7467" y="65">List</tspan><tspan font-weight="400" font-size="16" x="-51.4133" y="65">of</tspan><tspan font-weight="400" font-size="16" x="-33.58" y="65">sellers</tspan><tspan font-weight="400" font-size="16" x="12.42" y="65">, </tspan><tspan font-weight="400" font-size="16" x="21.42" y="65">where</tspan><tspan font-weight="400" font-size="16" x="-80.7467" y="84">seller</tspan><tspan font-weight="400" font-size="16" x="-38.2467" y="84">=</tspan><tspan font-weight="400" font-size="16" x="-24.4133" y="84">n</tspan><tspan font-weight="400" font-size="16" x="-15.58" y="84">-</tspan><tspan font-weight="400" font-size="16" x="-10.2467" y="84">tuple</tspan><tspan font-weight="400" font-size="16" x="28.7533" y="84">containing</tspan><tspan font-weight="400" font-size="16" x="105.753" y="84">kinds</tspan><tspan font-weight="400" font-size="16" x="147.42" y="84">of</tspan><tspan font-weight="400" font-size="16" x="165.253" y="84">values</tspan></text><path d="M636 83 650.617 83.0001 650.617 87.0001 636 87ZM648.617 79.0001 660.617 85.0001 648.617 91.0001Z"/><path d="M1004 39.5005C1004 27.0738 1014.07 17 1026.5 17L1250.5 17C1262.93 17 1273 27.0738 1273 39.5005L1273 129.499C1273 141.926 1262.93 152 1250.5 152L1026.5 152C1014.07 152 1004 141.926 1004 129.499Z" fill="#A9D18E" fill-rule="evenodd"/><text font-family="Arial,Arial_MSFontService,sans-serif" font-weight="700" font-size="21" transform="translate(1042.68 65)">Calculation<tspan x="121" y="0">Scores</tspan><tspan font-weight="400" font-size="16" x="-22" y="38">Rule</tspan><tspan font-weight="400" font-size="16" x="10.6667" y="38">-</tspan><tspan font-weight="400" font-size="16" x="16" y="38">based</tspan><tspan font-weight="400" font-size="16" x="63.8334" y="38">calculation</tspan><tspan font-weight="400" font-size="16" x="143.5" y="38">of</tspan><tspan font-weight="400" font-size="16" x="161.333" y="38">RFM </tspan><tspan font-weight="400" font-size="16" x="-22" y="57">scores</tspan><tspan font-weight="400" font-size="16" x="29.5" y="57">to</tspan><tspan font-weight="400" font-size="16" x="47.3334" y="57">yield</tspan><tspan font-weight="400" font-size="16" x="84.5" y="57">target</tspan><tspan font-weight="400" font-size="16" x="129.833" y="57">variable</tspan></text><rect x="1298" y="17" width="319" height="135" fill="#B4C7E7"/><text font-family="Arial,Arial_MSFontService,sans-serif" font-weight="700" font-size="21" transform="translate(1363.64 51)">Sellers RFM Score<tspan font-weight="400" font-size="16" x="43.0801" y="20">(</tspan><tspan font-weight="400" font-size="16" x="48.4133" y="20">vector</tspan><tspan font-weight="400" font-size="16" x="96.4133" y="20">space</tspan><tspan font-weight="400" font-size="16" x="138.913" y="20">)</tspan><tspan font-weight="400" font-size="16" x="-56.5" y="65">Vector </tspan><tspan font-weight="400" font-size="16" x="-6.71326" y="65">with</tspan><tspan font-weight="400" font-size="16" x="26.12" y="65">scores</tspan><tspan font-weight="400" font-size="16" x="73.12" y="65">, </tspan><tspan font-weight="400" font-size="16" x="82.12" y="65">where</tspan><tspan font-weight="400" font-size="16" x="-56.5" y="84">score =</tspan><tspan font-weight="400" font-size="16" x="0.833374" y="84">natural</tspan><tspan font-weight="400" font-size="16" x="54" y="84">number</tspan><tspan font-weight="400" font-size="16" x="112.5" y="84">in </tspan><tspan font-weight="400" font-size="16" x="129.333" y="84">range</tspan><tspan font-weight="400" font-size="16" x="174.5" y="84">[1,5]</tspan></text><rect x="18" y="284" width="320" height="135" fill="#B4C7E7"/><text font-family="Arial,Arial_MSFontService,sans-serif" font-weight="700" font-size="21" transform="translate(86.7922 319)">Sellers‘ Attributes<tspan font-weight="400" font-size="16" x="24.1867" y="20">(</tspan><tspan font-weight="400" font-size="16" x="29.52" y="20">topological</tspan><tspan font-weight="400" font-size="16" x="110.02" y="20">space</tspan><tspan font-weight="400" font-size="16" x="152.52" y="20">)</tspan><tspan font-weight="400" font-size="16" x="-59.1467" y="65">List</tspan><tspan font-weight="400" font-size="16" x="-29.8133" y="65">of</tspan><tspan font-weight="400" font-size="16" x="-11.98" y="65">attributes</tspan><tspan font-weight="400" font-size="16" x="53.6867" y="65">, </tspan><tspan font-weight="400" font-size="16" x="62.6867" y="65">where</tspan><tspan font-weight="400" font-size="15" x="-59.1467" y="83">attributes</tspan><tspan font-weight="400" font-size="15" x="5.02" y="83">=</tspan><tspan font-weight="400" font-size="15" x="17.52" y="83">n</tspan><tspan font-weight="400" font-size="15" x="25.6867" y="83">-</tspan><tspan font-weight="400" font-size="15" x="30.52" y="83">tuple</tspan><tspan font-weight="400" font-size="15" x="66.3533" y="83">containing</tspan><tspan font-weight="400" font-size="15" x="137.353" y="83">kinds</tspan><tspan font-weight="400" font-size="15" x="175.687" y="83">of</tspan><tspan font-weight="400" font-size="15" x="191.853" y="83">values</tspan></text><rect x="18" y="551" width="320" height="135" fill="#B4C7E7"/><text font-family="Arial,Arial_MSFontService,sans-serif" font-weight="700" font-size="21" transform="translate(86.7922 586)">Sellers‘ Attributes<tspan font-weight="400" font-size="16" x="24.1867" y="20">(</tspan><tspan font-weight="400" font-size="16" x="29.52" y="20">topological</tspan><tspan font-weight="400" font-size="16" x="110.02" y="20">space</tspan><tspan font-weight="400" font-size="16" x="152.52" y="20">)</tspan><tspan font-weight="400" font-size="16" x="-59.1467" y="65">List</tspan><tspan font-weight="400" font-size="16" x="-29.8133" y="65">of</tspan><tspan font-weight="400" font-size="16" x="-11.98" y="65">attributes</tspan><tspan font-weight="400" font-size="16" x="53.6867" y="65">, </tspan><tspan font-weight="400" font-size="16" x="62.6867" y="65">where</tspan><tspan font-weight="400" font-size="15" x="-59.1467" y="83">attributes</tspan><tspan font-weight="400" font-size="15" x="5.02" y="83">=</tspan><tspan font-weight="400" font-size="15" x="17.52" y="83">n</tspan><tspan font-weight="400" font-size="15" x="25.6867" y="83">-</tspan><tspan font-weight="400" font-size="15" x="30.52" y="83">tuple</tspan><tspan font-weight="400" font-size="15" x="66.3533" y="83">containing</tspan><tspan font-weight="400" font-size="15" x="137.353" y="83">kinds</tspan><tspan font-weight="400" font-size="15" x="175.687" y="83">of</tspan><tspan font-weight="400" font-size="15" x="191.853" y="83">values</tspan></text><path d="M367 306.501C367 294.074 377.074 284 389.501 284L613.499 284C625.926 284 636 294.074 636 306.501L636 396.499C636 408.926 625.926 419 613.499 419L389.501 419C377.074 419 367 408.926 367 396.499Z" fill="#A9D18E" fill-rule="evenodd"/><text font-family="Arial,Arial_MSFontService,sans-serif" font-weight="700" font-size="21" transform="translate(398.272 332)">Feature Engineering<tspan font-weight="400" font-size="16" x="-14.9134" y="38">Encoding</tspan><tspan font-weight="400" font-size="16" x="55.92" y="38">of</tspan><tspan font-weight="400" font-size="16" x="73.7533" y="38">variables </tspan><tspan font-weight="400" font-size="16" x="141.92" y="38">into</tspan><tspan font-weight="400" font-size="16" x="172.087" y="38">binary</tspan><tspan font-weight="400" font-size="16" x="-14.9134" y="57">or</tspan><tspan font-weight="400" font-size="16" x="3.75333" y="57">natural</tspan><tspan font-weight="400" font-size="16" x="56.92" y="57">number</tspan><tspan font-weight="400" font-size="16" x="110.92" y="57">s</tspan></text><path d="M367 573.501C367 561.074 377.074 551 389.501 551L613.499 551C625.926 551 636 561.074 636 573.501L636 663.499C636 675.926 625.926 686 613.499 686L389.501 686C377.074 686 367 675.926 367 663.499Z" fill="#A9D18E" fill-rule="evenodd"/><text font-family="Arial,Arial_MSFontService,sans-serif" font-weight="700" font-size="21" transform="translate(398.272 599)">Feature Engineering<tspan font-weight="400" font-size="16" x="-14.9134" y="38">Encoding</tspan><tspan font-weight="400" font-size="16" x="55.92" y="38">of</tspan><tspan font-weight="400" font-size="16" x="73.7533" y="38">variables </tspan><tspan font-weight="400" font-size="16" x="141.92" y="38">into</tspan><tspan font-weight="400" font-size="16" x="172.087" y="38">binary</tspan><tspan font-weight="400" font-size="16" x="-14.9134" y="57">or</tspan><tspan font-weight="400" font-size="16" x="3.75333" y="57">encoded</tspan><tspan font-weight="400" font-size="16" x="69.2533" y="57">categorical</tspan><tspan font-weight="400" font-size="16" x="150.753" y="57">variables</tspan></text><rect x="660" y="551" width="320" height="135" fill="#B4C7E7"/><text font-family="Arial,Arial_MSFontService,sans-serif" font-weight="700" font-size="21" transform="translate(728.968 585)">Sellers‘ Attributes<tspan font-weight="400" font-size="16" x="28.1867" y="20">(</tspan><tspan font-weight="400" font-size="16" x="33.52" y="20">euclidean</tspan><tspan font-weight="400" font-size="16" x="106.02" y="20">space</tspan><tspan font-weight="400" font-size="16" x="148.52" y="20">)</tspan><tspan font-weight="400" font-size="16" x="-59.1467" y="65">List</tspan><tspan font-weight="400" font-size="16" x="-29.8133" y="65">of</tspan><tspan font-weight="400" font-size="16" x="-11.98" y="65">attributes</tspan><tspan font-weight="400" font-size="16" x="53.6867" y="65">, </tspan><tspan font-weight="400" font-size="16" x="62.6867" y="65">where</tspan><tspan font-weight="400" font-size="16" x="-59.1467" y="84">attributes</tspan><tspan font-weight="400" font-size="16" x="11.02" y="84">=</tspan><tspan font-weight="400" font-size="16" x="24.8533" y="84">n</tspan><tspan font-weight="400" font-size="16" x="33.6867" y="84">-</tspan><tspan font-weight="400" font-size="16" x="39.02" y="84">tuple</tspan><tspan font-weight="400" font-size="16" x="78.02" y="84">with</tspan><tspan font-weight="400" font-size="16" x="110.853" y="84">natural</tspan><tspan font-weight="400" font-size="16" x="164.02" y="84">number</tspan><tspan font-weight="400" font-size="16" x="218.02" y="84">s</tspan></text><rect x="660" y="284" width="320" height="135" fill="#B4C7E7"/><text font-family="Arial,Arial_MSFontService,sans-serif" font-weight="700" font-size="21" transform="translate(728.968 318)">Sellers‘ Attributes<tspan font-weight="400" font-size="16" x="28.1867" y="20">(</tspan><tspan font-weight="400" font-size="16" x="33.52" y="20">euclidean</tspan><tspan font-weight="400" font-size="16" x="106.02" y="20">space</tspan><tspan font-weight="400" font-size="16" x="148.52" y="20">)</tspan><tspan font-weight="400" font-size="16" x="-59.1467" y="65">List</tspan><tspan font-weight="400" font-size="16" x="-29.8133" y="65">of</tspan><tspan font-weight="400" font-size="16" x="-11.98" y="65">attributes</tspan><tspan font-weight="400" font-size="16" x="53.6867" y="65">, </tspan><tspan font-weight="400" font-size="16" x="62.6867" y="65">where</tspan><tspan font-weight="400" font-size="16" x="-59.1467" y="84">attributes</tspan><tspan font-weight="400" font-size="16" x="11.02" y="84">=</tspan><tspan font-weight="400" font-size="16" x="24.8533" y="84">n</tspan><tspan font-weight="400" font-size="16" x="33.6867" y="84">-</tspan><tspan font-weight="400" font-size="16" x="39.02" y="84">tuple</tspan><tspan font-weight="400" font-size="16" x="78.02" y="84">with</tspan><tspan font-weight="400" font-size="16" x="110.853" y="84">natural</tspan><tspan font-weight="400" font-size="16" x="164.02" y="84">number</tspan><tspan font-weight="400" font-size="16" x="218.02" y="84">s</tspan></text><path d="M1004 306.501C1004 294.074 1014.07 284 1026.5 284L1250.5 284C1262.93 284 1273 294.074 1273 306.501L1273 396.499C1273 408.926 1262.93 419 1250.5 419L1026.5 419C1014.07 419 1004 408.926 1004 396.499Z" fill="#A9D18E" fill-rule="evenodd"/><text font-family="Arial,Arial_MSFontService,sans-serif" font-weight="700" font-size="21" transform="translate(1036.76 332)">Supervised<tspan x="120.833" y="0">Training</tspan><tspan font-weight="400" font-size="16" x="-16.0867" y="38">Training </tspan><tspan font-weight="400" font-size="16" x="45.3201" y="38">of</tspan><tspan font-weight="400" font-size="16" x="63.1533" y="38">a </tspan><tspan font-weight="400" font-size="16" x="76.4867" y="38">baseline</tspan><tspan font-weight="400" font-size="16" x="140.153" y="38">classifier</tspan><tspan font-weight="400" font-size="16" x="206.653" y="38">in </tspan><tspan font-weight="400" font-size="16" x="-16.0867" y="57">a </tspan><tspan font-weight="400" font-size="16" x="-2.7533" y="57">supervised</tspan><tspan font-weight="400" font-size="16" x="78.7467" y="57">manner</tspan></text><path d="M1004 573.501C1004 561.074 1014.07 551 1026.5 551L1250.5 551C1262.93 551 1273 561.074 1273 573.501L1273 663.499C1273 675.926 1262.93 686 1250.5 686L1026.5 686C1014.07 686 1004 675.926 1004 663.499Z" fill="#A9D18E" fill-rule="evenodd"/><text font-family="Arial,Arial_MSFontService,sans-serif" font-weight="700" font-size="21" transform="translate(1066.93 599)">Trained<tspan x="81.8201" y="0">Model</tspan><tspan font-weight="400" font-size="16" x="-46.2533" y="38">Basline</tspan><tspan font-weight="400" font-size="16" x="10.4135" y="38">Classifier</tspan><tspan font-weight="400" font-size="16" x="80.4135" y="38">trained</tspan><tspan font-weight="400" font-size="16" x="133.58" y="38">on a </tspan><tspan font-weight="400" font-size="16" x="-46.2533" y="57">supervised</tspan><tspan font-weight="400" font-size="16" x="35.2467" y="57">manner</tspan></text><rect x="1298" y="551" width="319" height="135" fill="#B4C7E7"/><text font-family="Arial,Arial_MSFontService,sans-serif" font-weight="700" font-size="21" transform="translate(1363.64 585)">Sellers RFM Score<tspan font-weight="400" font-size="16" x="43.0801" y="20">(</tspan><tspan font-weight="400" font-size="16" x="48.4133" y="20">vector</tspan><tspan font-weight="400" font-size="16" x="96.4133" y="20">space</tspan><tspan font-weight="400" font-size="16" x="138.913" y="20">)</tspan><tspan font-weight="400" font-size="16" x="-56.5" y="65">Vector </tspan><tspan font-weight="400" font-size="16" x="-6.71326" y="65">with</tspan><tspan font-weight="400" font-size="16" x="26.12" y="65">scores</tspan><tspan font-weight="400" font-size="16" x="73.12" y="65">, </tspan><tspan font-weight="400" font-size="16" x="82.12" y="65">where</tspan><tspan font-weight="400" font-size="16" x="-56.5" y="84">score =</tspan><tspan font-weight="400" font-size="16" x="0.833374" y="84">natural</tspan><tspan font-weight="400" font-size="16" x="54" y="84">number</tspan><tspan font-weight="400" font-size="16" x="112.5" y="84">in </tspan><tspan font-weight="400" font-size="16" x="129.333" y="84">range</tspan><tspan font-weight="400" font-size="16" x="174.5" y="84">[1,5]</tspan></text><path d="M980 83 994.617 83.0001 994.617 87.0001 980 87ZM992.617 79.0001 1004.62 85.0001 992.617 91.0001Z"/><path d="M8.52966e-06-2 14.6169-1.99994 14.6169 2.00006-8.52966e-06 2ZM12.6169-5.99995 24.6169 0.000104987 12.6169 6.00005Z" transform="matrix(1 0 0 -1 1273 85.0001)"/><path d="M338 350 357.474 350 357.474 354 338 354ZM355.474 346 367.474 352 355.474 358Z"/><path d="M636 350 650.617 350 650.617 354 636 354ZM648.617 346 660.617 352 648.617 358Z"/><path d="M980 350 994.617 350 994.617 354 980 354ZM992.617 346 1004.62 352 992.617 358Z"/><path d="M1141 419 1141 540.816 1137 540.816 1137 419ZM1145 538.816 1139 550.816 1133 538.816Z"/><path d="M338 617 357.474 617 357.474 621 338 621ZM355.474 613 367.474 619 355.474 625Z"/><path d="M8.52966e-06-2 14.6169-1.99994 14.6169 2.00006-8.52966e-06 2ZM12.6169-5.99995 24.6169 0.000104987 12.6169 6.00005Z" transform="matrix(1 0 0 -1 636 619)"/><path d="M980 617 994.617 617 994.617 621 980 621ZM992.617 613 1004.62 619 992.617 625Z"/><path d="M1273 617 1287.62 617 1287.62 621 1273 621ZM1285.62 613 1297.62 619 1285.62 625Z"/><path d="M1459.66 152 1459.66 219.908 1139 219.908 1141 217.908 1141 273.817 1137 273.817 1137 215.908 1457.66 215.908 1455.66 217.908 1455.66 152ZM1145 271.817 1139 283.817 1133 271.817Z"/></g></svg>