<svg width="1177" height="638" xmlns="http://www.w3.org/2000/svg" xmlns:xlink="http://www.w3.org/1999/xlink" overflow="hidden"><defs><clipPath id="clip0"><rect x="36" y="47" width="1177" height="638"/></clipPath></defs><g clip-path="url(#clip0)" transform="translate(-36 -47)"><rect x="37" y="48" width="265" height="111" fill="#F4B183"/><text font-family="Arial,Arial_MSFontService,sans-serif" font-weight="700" font-size="21" transform="translate(97.3962 87)">Create project<tspan font-weight="400" font-size="19" x="-38.92" y="48">Define</tspan><tspan font-weight="400" font-size="19" x="20.08" y="48">settings</tspan><tspan font-weight="400" font-size="19" x="89.4133" y="48">and </tspan><tspan font-weight="400" font-size="19" x="125.58" y="48">targets</tspan></text><path d="M340 66.5005C340 56.2829 348.283 48 358.5 48L586.5 48C596.717 48 605 56.2829 605 66.5005L605 140.5C605 150.717 596.717 159 586.5 159L358.5 159C348.283 159 340 150.717 340 140.5Z" fill="#A9D18E" fill-rule="evenodd"/><text font-family="Arial,Arial_MSFontService,sans-serif" font-weight="700" font-size="21" transform="translate(382.05 87)">Loading<tspan x="88.8333" y="0">data</tspan><tspan x="138.667" y="0">files</tspan><tspan font-weight="400" font-size="19" x="-7.5" y="48">Load </tspan><tspan font-weight="400" font-size="19" x="39" y="48">data</tspan><tspan font-weight="400" font-size="19" x="80.3333" y="48">from</tspan><tspan font-weight="400" font-size="19" x="122.667" y="48">csv</tspan><tspan font-weight="400" font-size="19" x="155.833" y="48">files</tspan></text><path d="M5.45188e-06-2 28.514-1.99992 28.514 2.00008-5.45188e-06 2ZM26.514-5.99993 38.514 0.000104987 26.514 6.00007Z" transform="matrix(1 0 0 -1 302 103)"/><rect x="644" y="48" width="265" height="111" fill="#B4C7E7"/><text font-family="Arial,Arial_MSFontService,sans-serif" font-weight="700" font-size="21" transform="translate(725.457 87)">Input<tspan x="58.1667" y="0">dat</tspan>a<tspan font-weight="400" font-size="19" x="-51.8333" y="48">Input </tspan><tspan font-weight="400" font-size="19" x="-5.33331" y="48">data</tspan><tspan font-weight="400" font-size="19" x="36" y="48">as</tspan><tspan font-weight="400" font-size="19" x="60.8334" y="48">dataframes</tspan></text><path d="M605 101 633.514 101 633.514 105 605 105ZM631.514 97.0001 643.514 103 631.514 109Z"/><path d="M948 66.5005C948 56.2829 956.283 48 966.5 48L1194.5 48C1204.72 48 1213 56.2829 1213 66.5005L1213 140.5C1213 150.717 1204.72 159 1194.5 159L966.5 159C956.283 159 948 150.717 948 140.5Z" fill="#A9D18E" fill-rule="evenodd"/><text font-family="Arial,Arial_MSFontService,sans-serif" font-weight="700" font-size="21" transform="translate(971.03 87)">Exploring<tspan x="104.333" y="0">dataframes</tspan><tspan font-weight="400" font-size="19" x="6.08667" y="48">Basic</tspan><tspan font-weight="400" font-size="19" x="56.92" y="48">Exploration </tspan><tspan font-weight="400" font-size="19" x="155.253" y="48">of</tspan><tspan font-weight="400" font-size="19" x="175.92" y="48">data</tspan></text><path d="M948 241.5C948 231.283 956.283 223 966.5 223L1194.5 223C1204.72 223 1213 231.283 1213 241.5L1213 315.5C1213 325.717 1204.72 334 1194.5 334L966.5 334C956.283 334 948 325.717 948 315.5Z" fill="#A9D18E" fill-rule="evenodd"/><text font-family="Arial,Arial_MSFontService,sans-serif" font-weight="700" font-size="21" transform="translate(982.28 259)">Joining<tspan x="81.8334" y="0">dataframes</tspan><tspan font-weight="400" font-size="19" x="1.16669" y="32">Creating</tspan><tspan font-weight="400" font-size="19" x="76.6667" y="32">marketing</tspan><tspan font-weight="400" font-size="19" x="163.5" y="32">and </tspan><tspan font-weight="400" font-size="19" x="26.5" y="55">seller</tspan><tspan font-weight="400" font-size="19" x="76.1667" y="55">dataframes</tspan></text><path d="M644 241.5C644 231.283 652.283 223 662.5 223L890.5 223C900.717 223 909 231.283 909 241.5L909 315.5C909 325.717 900.717 334 890.5 334L662.5 334C652.283 334 644 325.717 644 315.5Z" fill="#A9D18E" fill-rule="evenodd"/><text font-family="Arial,Arial_MSFontService,sans-serif" font-weight="700" font-size="21" transform="translate(679.794 259)">Selecting<tspan x="100.833" y="0">variables</tspan><tspan font-weight="400" font-size="19" x="13.3333" y="32">Selecting</tspan><tspan font-weight="400" font-size="19" x="95.1666" y="32">necessary</tspan><tspan font-weight="400" font-size="19" x="-5.25336" y="55">variables </tspan><tspan font-weight="400" font-size="19" x="74.4133" y="55">for</tspan><tspan font-weight="400" font-size="19" x="101.247" y="55">calculations</tspan></text><path d="M340 241.5C340 231.283 348.283 223 358.5 223L586.5 223C596.717 223 605 231.283 605 241.5L605 315.5C605 325.717 596.717 334 586.5 334L358.5 334C348.283 334 340 325.717 340 315.5Z" fill="#A9D18E" fill-rule="evenodd"/><text font-family="Arial,Arial_MSFontService,sans-serif" font-weight="700" font-size="21" transform="translate(377.966 259)">Calculating<tspan x="121" y="0">scores</tspan><tspan font-weight="400" font-size="19" x="-15.8333" y="32">RFM </tspan><tspan font-weight="400" font-size="19" x="29.6667" y="32">scores</tspan><tspan font-weight="400" font-size="19" x="89.6667" y="32">are</tspan><tspan font-weight="400" font-size="19" x="121.667" y="32">calculated</tspan><tspan font-weight="400" font-size="19" x="-20.5" y="55">based</tspan><tspan font-weight="400" font-size="19" x="35.3333" y="55">on </tspan><tspan font-weight="400" font-size="19" x="61.1667" y="55">selected</tspan><tspan font-weight="400" font-size="19" x="135.667" y="55">variables</tspan></text><rect x="37" y="223" width="265" height="111" fill="#B4C7E7"/><text font-family="Arial,Arial_MSFontService,sans-serif" font-weight="700" font-size="21" transform="translate(94.0195 262)">Target variable<tspan font-weight="400" font-size="19" x="-13.7933" y="48">RFM </tspan><tspan font-weight="400" font-size="19" x="31.7067" y="48">scores</tspan><tspan font-weight="400" font-size="19" x="91.7067" y="48">as</tspan><tspan font-weight="400" font-size="19" x="116.54" y="48">target</tspan></text><path d="M37 416.5C37 406.283 45.2829 398 55.5004 398L283.5 398C293.717 398 302 406.283 302 416.5L302 490.5C302 500.717 293.717 509 283.5 509L55.5004 509C45.2829 509 37 500.717 37 490.5Z" fill="#A9D18E" fill-rule="evenodd"/><text font-family="Arial,Arial_MSFontService,sans-serif" font-weight="700" font-size="21" transform="translate(71.3929 434)">Recoding<tspan x="103" y="0">variable</tspan>s<tspan font-weight="400" font-size="19" x="-11.3333" y="32">Attributes </tspan><tspan font-weight="400" font-size="19" x="72.5" y="32">are</tspan><tspan font-weight="400" font-size="19" x="104.5" y="32">recoded</tspan><tspan font-weight="400" font-size="19" x="176.833" y="32">into</tspan><tspan font-weight="400" font-size="19" x="-15" y="55">categorical</tspan><tspan font-weight="400" font-size="19" x="75" y="55">/</tspan><tspan font-weight="400" font-size="19" x="80.1667" y="55">binary</tspan><tspan font-weight="400" font-size="19" x="136" y="55">variable</tspan><tspan font-weight="400" font-size="19" x="201.167" y="55">s</tspan></text><rect x="340" y="398" width="265" height="111" fill="#B4C7E7"/><text font-family="Arial,Arial_MSFontService,sans-serif" font-weight="700" font-size="21" transform="translate(417.05 437)">Model <tspan x="67.6667" y="0">data</tspan><tspan font-weight="400" font-size="19" x="-45" y="48">Data </tspan><tspan font-weight="400" font-size="19" x="-0.5" y="48">prepared</tspan><tspan font-weight="400" font-size="19" x="79" y="48">for</tspan><tspan font-weight="400" font-size="19" x="105.833" y="48">model</tspan></text><path d="M644 416.5C644 406.283 652.283 398 662.5 398L890.5 398C900.717 398 909 406.283 909 416.5L909 490.5C909 500.717 900.717 509 890.5 509L662.5 509C652.283 509 644 500.717 644 490.5Z" fill="#A9D18E" fill-rule="evenodd"/><text font-family="Arial,Arial_MSFontService,sans-serif" font-weight="700" font-size="21" transform="translate(708.794 434)">Splitting data<tspan font-weight="400" font-size="19" x="-40.42" y="32">Data </tspan><tspan font-weight="400" font-size="19" x="4.07996" y="32">are</tspan><tspan font-weight="400" font-size="19" x="36.08" y="32">split</tspan><tspan font-weight="400" font-size="19" x="74.4133" y="32">into</tspan><tspan font-weight="400" font-size="19" x="109.58" y="32">test</tspan><tspan font-weight="400" font-size="19" x="144.747" y="32">and </tspan><tspan font-weight="400" font-size="19" x="14.9133" y="55">train</tspan><tspan font-weight="400" font-size="19" x="56.2466" y="55">subsets</tspan></text><path d="M948 416.5C948 406.283 956.283 398 966.5 398L1194.5 398C1204.72 398 1213 406.283 1213 416.5L1213 490.5C1213 500.717 1204.72 509 1194.5 509L966.5 509C956.283 509 948 500.717 948 490.5Z" fill="#A9D18E" fill-rule="evenodd"/><text font-family="Arial,Arial_MSFontService,sans-serif" font-weight="700" font-size="21" transform="translate(989.287 434)">Training <tspan x="88.9867" y="0">classifier</tspan><tspan font-weight="400" font-size="19" x="-12.2466" y="32">Training</tspan><tspan font-weight="400" font-size="19" x="59.3933" y="32">with</tspan><tspan font-weight="400" font-size="19" x="97.7267" y="32">train</tspan><tspan font-weight="400" font-size="19" x="139.06" y="32">subset</tspan><tspan font-weight="400" font-size="19" x="-19.34" y="55">and </tspan><tspan font-weight="400" font-size="19" x="16.8267" y="55">tested</tspan><tspan font-weight="400" font-size="19" x="72.66" y="55">with</tspan><tspan font-weight="400" font-size="19" x="110.993" y="55">test</tspan><tspan font-weight="400" font-size="19" x="146.16" y="55">subset</tspan></text><rect x="644" y="573" width="265" height="111" fill="#B4C7E7"/><text font-family="Arial,Arial_MSFontService,sans-serif" font-weight="700" font-size="21" transform="translate(699.373 609)">Prediction<tspan x="110.333" y="0">data</tspan><tspan font-weight="400" font-size="19" x="-25.3333" y="34">Predicted</tspan><tspan font-weight="400" font-size="19" x="58.5" y="34">scores</tspan><tspan font-weight="400" font-size="19" x="118.5" y="34">for</tspan><tspan font-weight="400" font-size="19" x="145.333" y="34">new</tspan><tspan font-weight="400" font-size="19" x="34.1667" y="56">customers</tspan></text><path d="M948 591.5C948 581.283 956.283 573 966.5 573L1194.5 573C1204.72 573 1213 581.283 1213 591.5L1213 665.5C1213 675.717 1204.72 684 1194.5 684L966.5 684C956.283 684 948 675.717 948 665.5Z" fill="#A9D18E" fill-rule="evenodd"/><text font-family="Arial,Arial_MSFontService,sans-serif" font-weight="700" font-size="21" transform="translate(985.197 609)">Applying<tspan x="97.1667" y="0">classifier</tspan><tspan font-weight="400" font-size="19" x="1.75336" y="32">Classifier</tspan><tspan font-weight="400" font-size="19" x="83.5867" y="32">is</tspan><tspan font-weight="400" font-size="19" x="102.253" y="32">applied</tspan><tspan font-weight="400" font-size="19" x="167.42" y="32">on </tspan><tspan font-weight="400" font-size="19" x="43.7534" y="55">unseen</tspan><tspan font-weight="400" font-size="19" x="109.92" y="55">data</tspan></text><path d="M340 591.5C340 581.283 348.283 573 358.5 573L586.5 573C596.717 573 605 581.283 605 591.5L605 665.5C605 675.717 596.717 684 586.5 684L358.5 684C348.283 684 340 675.717 340 665.5Z" fill="#A9D18E" fill-rule="evenodd"/><text font-family="Arial,Arial_MSFontService,sans-serif" font-weight="700" font-size="21" transform="translate(385.713 609)">Refactoring<tspan x="124.5" y="0">code</tspan><tspan font-weight="400" font-size="19" x="1.25333" y="32">Code </tspan><tspan font-weight="400" font-size="19" x="50.92" y="32">is</tspan><tspan font-weight="400" font-size="19" x="69.5867" y="32">refactored</tspan><tspan font-weight="400" font-size="19" x="158.42" y="32">in </tspan><tspan font-weight="400" font-size="19" x="-24.08" y="55">dataflows</tspan><tspan font-weight="400" font-size="19" x="59.7533" y="55">and </tspan><tspan font-weight="400" font-size="19" x="95.92" y="55">documented</tspan></text><rect x="37" y="573" width="265" height="111" fill="#F4B183"/><text font-family="Arial,Arial_MSFontService,sans-serif" font-weight="700" font-size="21" transform="translate(100.973 613)">Share <tspan x="65.1667" y="0">project</tspan><tspan font-weight="400" font-size="19" x="-44.08" y="48">Project </tspan><tspan font-weight="400" font-size="19" x="19.0867" y="48">is</tspan><tspan font-weight="400" font-size="19" x="37.7533" y="48">shared</tspan><tspan font-weight="400" font-size="19" x="99.7533" y="48">on </tspan><tspan font-weight="400" font-size="19" x="125.587" y="48">Github</tspan></text><path d="M5.45188e-06-2 28.514-1.99992 28.514 2.00008-5.45188e-06 2ZM26.514-5.99993 38.514 0.000104987 26.514 6.00007Z" transform="matrix(1 0 0 -1 909 103)"/><path d="M1082 159 1082 212.999 1078 212.999 1078 159ZM1086 210.999 1080 222.999 1074 210.999Z"/><path d="M5.45189e-06-2 28.5139-1.99992 28.5139 2.00008-5.45189e-06 2ZM26.5139-5.99993 38.5139 0.000104987 26.5139 6.00007Z" transform="matrix(-1 0 0 1 947.514 278)"/><path d="M5.45188e-06-2 28.514-1.99992 28.514 2.00008-5.45188e-06 2ZM26.514-5.99993 38.514 0.000104987 26.514 6.00007Z" transform="matrix(-1 0 0 1 643.514 278)"/><path d="M5.45188e-06-2 28.514-1.99992 28.514 2.00008-5.45188e-06 2ZM26.514-5.99993 38.514 0.000104987 26.514 6.00007Z" transform="matrix(-1 0 0 1 340.514 278)"/><path d="M171 334 171 387.999 167 387.999 167 334ZM175 385.999 169 397.999 163 385.999Z"/><path d="M302 451 330.514 451 330.514 455 302 455ZM328.514 447 340.514 453 328.514 459Z"/><path d="M5.45188e-06-2 28.514-1.99992 28.514 2.00008-5.45188e-06 2ZM26.514-5.99993 38.514 0.000104987 26.514 6.00007Z" transform="matrix(1 0 0 -1 605 453)"/><path d="M909 451 937.514 451 937.514 455 909 455ZM935.514 447 947.514 453 935.514 459Z"/><path d="M2-3.28088e-06 2.00009 53.9993-1.99991 53.9993-2 3.28088e-06ZM6.00008 51.9993 0.000104987 63.9993-5.99991 51.9993Z" transform="matrix(-1 0 0 1 1080 509)"/><path d="M5.45191e-06-2 28.5138-1.99992 28.5138 2.00008-5.45191e-06 2ZM26.5138-5.99993 38.5138 0.000104987 26.5138 6.00007Z" transform="matrix(-1 0 0 1 947.514 628)"/><path d="M643.514 630 615 630 615 626 643.514 626ZM617 634 605 628 617 622Z"/><path d="M5.45189e-06-2 28.5139-1.99992 28.5139 2.00008-5.45189e-06 2ZM26.5139-5.99993 38.5139 0.000104987 26.5139 6.00007Z" transform="matrix(-1 0 0 1 340.514 628)"/></g></svg>