<svg width="1225" height="626" xmlns="http://www.w3.org/2000/svg" xmlns:xlink="http://www.w3.org/1999/xlink" overflow="hidden"><defs><filter id="fx0" x="-10%" y="-10%" width="120%" height="120%" filterUnits="userSpaceOnUse" primitiveUnits="userSpaceOnUse"><feComponentTransfer color-interpolation-filters="sRGB"><feFuncR type="discrete" tableValues="0 0"/><feFuncG type="discrete" tableValues="0 0"/><feFuncB type="discrete" tableValues="0 0"/><feFuncA type="linear" slope="0.4" intercept="0"/></feComponentTransfer><feGaussianBlur stdDeviation="1.77778 1.77778"/></filter><clipPath id="clip1"><rect x="31" y="47" width="1225" height="626"/></clipPath><clipPath id="clip2"><path d="M37 272 37 425 301 425 301 272ZM31 47 1256 47 1256 673 31 673Z" fill-rule="evenodd" clip-rule="evenodd"/></clipPath><clipPath id="clip3"><rect x="-2" y="-2" width="285" height="174"/></clipPath><clipPath id="clip4"><rect x="0" y="0" width="282" height="171"/></clipPath></defs><g clip-path="url(#clip1)" transform="translate(-31 -47)"><rect x="37" y="48" width="265" height="160" fill="#B4C7E7"/><text font-family="Arial,Arial_MSFontService,sans-serif" font-weight="700" font-size="21" transform="translate(106.751 101)">Input <tspan x="58.1667" y="0">Object</tspan><tspan font-weight="400" font-size="19" x="-60.58" y="48">Object</tspan><tspan font-weight="400" font-size="19" x="-1.57999" y="48">containing</tspan><tspan font-weight="400" font-size="19" x="88.42" y="48">selle</tspan><tspan font-weight="400" font-size="19" x="126.753" y="48">r</tspan><tspan font-weight="400" font-size="19" x="138.087" y="48">data</tspan><tspan font-weight="400" font-size="19" x="-60.58" y="71">in </tspan><tspan font-weight="400" font-size="19" x="-40.9133" y="71">a n</tspan><tspan font-weight="400" font-size="19" x="-15.08" y="71">-</tspan><tspan font-weight="400" font-size="19" x="-8.91333" y="71">dimensional </tspan><tspan font-weight="400" font-size="19" x="95.5867" y="71">space</tspan></text><path d="M353 74.6671C353 59.9393 364.939 48 379.667 48L638.333 48C653.061 48 665 59.9393 665 74.6671L665 181.333C665 196.061 653.061 208 638.333 208L379.667 208C364.939 208 353 196.061 353 181.333Z" fill="#A9D18E" fill-rule="evenodd"/><text font-family="Arial,Arial_MSFontService,sans-serif" font-weight="700" font-size="21" transform="translate(375.064 90)">Calculation<tspan x="121" y="0">of</tspan><tspan x="147.167" y="0">RFM </tspan><tspan x="199.333" y="0">scores</tspan><tspan font-weight="400" font-size="19" x="-4.57999" y="48">Based</tspan><tspan font-weight="400" font-size="19" x="53.42" y="48">on </tspan><tspan font-weight="400" font-size="19" x="79.2533" y="48">input</tspan><tspan font-weight="400" font-size="19" x="124.753" y="48">features</tspan><tspan font-weight="400" font-size="19" x="197.087" y="48">the</tspan><tspan font-weight="400" font-size="19" x="-4.57999" y="71">individual R/F/M</tspan><tspan font-weight="400" font-size="19" x="128.92" y="71">-</tspan><tspan font-weight="400" font-size="19" x="135.087" y="71">Dimensions</tspan><tspan font-weight="400" font-size="19" x="237.587" y="71">are</tspan><tspan font-weight="400" font-size="19" x="-4.57999" y="93">calculated</tspan><tspan font-weight="400" font-size="19" x="84.42" y="93">and </tspan><tspan font-weight="400" font-size="19" x="120.587" y="93">average</tspan><tspan font-weight="400" font-size="19" x="187.753" y="93">d</tspan></text><rect x="713" y="48" width="265" height="160" fill="#B4C7E7"/><text font-family="Arial,Arial_MSFontService,sans-serif" font-weight="700" font-size="21" transform="translate(781.656 101)">Score <tspan x="65.1667" y="0">object</tspan><tspan font-weight="400" font-size="19" x="-58.9133" y="48">RFM score </tspan><tspan font-weight="400" font-size="19" x="37.2533" y="48">as</tspan><tspan font-weight="400" font-size="19" x="62.0867" y="48">1</tspan><tspan font-weight="400" font-size="19" x="72.42" y="48">-</tspan><tspan font-weight="400" font-size="19" x="78.5867" y="48">dimensional </tspan><tspan font-weight="400" font-size="19" x="-58.9133" y="71">vector</tspan><tspan font-weight="400" font-size="19" x="-3.08002" y="71">space</tspan></text><path d="M353 290.834C353 276.014 365.014 264 379.834 264L638.166 264C652.986 264 665 276.014 665 290.834L665 398.166C665 412.986 652.986 425 638.166 425L379.834 425C365.014 425 353 412.986 353 398.166Z" fill="#A9D18E" fill-rule="evenodd"/><text font-family="Arial,Arial_MSFontService,sans-serif" font-weight="700" font-size="21" transform="translate(412.606 295)">Recode<tspan x="82.8333" y="0">of</tspan><tspan x="109" y="0">features</tspan><tspan font-weight="400" font-size="19" x="-42.58" y="48">Multiple </tspan><tspan font-weight="400" font-size="19" x="26.7534" y="48">seller</tspan><tspan font-weight="400" font-size="19" x="76.42" y="48">features</tspan><tspan font-weight="400" font-size="19" x="148.753" y="48">are</tspan><tspan font-weight="400" font-size="19" x="-42.58" y="71">recoded</tspan><tspan font-weight="400" font-size="19" x="29.7534" y="71">into</tspan><tspan font-weight="400" font-size="19" x="64.92" y="71">boolean</tspan><tspan font-weight="400" font-size="19" x="136.253" y="71">variables </tspan><tspan font-weight="400" font-size="19" x="215.92" y="71">or</tspan><tspan font-weight="400" font-size="19" x="-42.58" y="93">count</tspan><tspan font-weight="400" font-size="19" x="8.08667" y="93">variables + </tspan><tspan font-weight="400" font-size="19" x="103.753" y="93">inner</tspan><tspan font-weight="400" font-size="19" x="150.253" y="93">join</tspan><tspan font-weight="400" font-size="19" x="184.42" y="93">of</tspan><tspan font-weight="400" font-size="19" x="-42.58" y="116">RFM score </tspan><tspan font-weight="400" font-size="19" x="53.5867" y="116">for</tspan><tspan font-weight="400" font-size="19" x="80.42" y="116">contained</tspan><tspan font-weight="400" font-size="19" x="166.253" y="116">sellers</tspan></text><path d="M302 126 343.314 126 343.314 130 302 130ZM341.314 122 353.314 128 341.314 134Z"/><path d="M4.38488e-06-2 37.8859-1.99992 37.8859 2.00008-4.38488e-06 2ZM35.8859-5.99992 47.8859 0.000104987 35.8859 6.00008Z" fill="#767171" transform="matrix(1 0 0 -1 665 128)"/><path d="M848.029 208 848.029 237.772 509 237.772 511 235.772 511 253.545 507 253.545 507 233.772 846.029 233.772 844.029 235.772 844.029 208ZM515 251.545 509 263.545 503 251.545Z"/><rect x="37" y="511" width="265" height="161" fill="#B4C7E7"/><text font-family="Arial,Arial_MSFontService,sans-serif" font-weight="700" font-size="21" transform="translate(93.1781 553)">Training object<tspan font-weight="400" font-size="19" x="-47.0067" y="48">Training </tspan><tspan font-weight="400" font-size="19" x="24.6333" y="48">data</tspan><tspan font-weight="400" font-size="19" x="65.9667" y="48">based</tspan><tspan font-weight="400" font-size="19" x="121.8" y="48">on </tspan><tspan font-weight="400" font-size="19" x="-47.0067" y="71">recoded</tspan><tspan font-weight="400" font-size="19" x="25.3267" y="71">features</tspan><tspan font-weight="400" font-size="19" x="97.66" y="71">for</tspan><tspan font-weight="400" font-size="19" x="124.493" y="71">sellers</tspan><tspan font-weight="400" font-size="19" x="183.493" y="71">in  </tspan><tspan font-weight="400" font-size="19" x="-47.0067" y="93">test</tspan><tspan font-weight="400" font-size="19" x="-17.0067" y="93">/</tspan><tspan font-weight="400" font-size="19" x="-11.84" y="93">train</tspan><tspan font-weight="400" font-size="19" x="29.4933" y="93">divided</tspan><tspan font-weight="400" font-size="19" x="93.66" y="93">subsets</tspan></text><path d="M353 537.834C353 523.014 365.014 511 379.834 511L638.166 511C652.986 511 665 523.014 665 537.834L665 645.166C665 659.986 652.986 672 638.166 672L379.834 672C365.014 672 353 659.986 353 645.166Z" fill="#A9D18E" fill-rule="evenodd"/><text font-family="Arial,Arial_MSFontService,sans-serif" font-weight="700" font-size="21" transform="translate(416.033 542)">Training <tspan x="88.9867" y="0">Classifier</tspan><tspan font-weight="400" font-size="19" x="-46.0067" y="48">Based</tspan><tspan font-weight="400" font-size="19" x="11.9933" y="48">on </tspan><tspan font-weight="400" font-size="19" x="37.8267" y="48">training</tspan><tspan font-weight="400" font-size="19" x="103.993" y="48">object</tspan><tspan font-weight="400" font-size="19" x="158.827" y="48">a </tspan><tspan font-weight="400" font-size="19" x="-46.0067" y="71">classification</tspan><tspan font-weight="400" font-size="19" x="64.8267" y="71">model</tspan><tspan font-weight="400" font-size="19" x="120.66" y="71">is</tspan><tspan font-weight="400" font-size="19" x="139.327" y="71">trained</tspan><tspan font-weight="400" font-size="19" x="201.327" y="71">by</tspan><tspan font-weight="400" font-size="19" x="-46.0067" y="93">using</tspan><tspan font-weight="400" font-size="19" x="3.66" y="93">RFM score </tspan><tspan font-weight="400" font-size="19" x="99.8267" y="93">as</tspan><tspan font-weight="400" font-size="19" x="124.66" y="93">target</tspan><tspan font-weight="400" font-size="19" x="-46.0067" y="116">variable (ordinal </tspan><tspan font-weight="400" font-size="19" x="91.4933" y="116">scale</tspan><tspan font-weight="400" font-size="19" x="134.993" y="116">)</tspan></text><path d="M510.543 425 510.543 469.858 169 469.858 171 467.858 171 500.716 167 500.716 167 465.858 508.543 465.858 506.543 467.858 506.543 425ZM175 498.716 169 510.716 163 498.716Z"/><path d="M8.25743e-06-2 40.8569-1.99983 40.8569 2.00017-8.25743e-06 2ZM38.8569-5.99984 50.8569 0.000209974 38.8569 6.00016Z" transform="matrix(1 0 0 -1 302 591)"/><rect x="713" y="511" width="265" height="161" fill="#B4C7E7"/><text font-family="Arial,Arial_MSFontService,sans-serif" font-weight="700" font-size="21" transform="translate(776.242 553)">Output object<tspan font-weight="400" font-size="19" x="-53.5" y="48">Transformation </tspan><tspan font-weight="400" font-size="19" x="75.9733" y="48">into</tspan><tspan font-weight="400" font-size="19" x="111.14" y="48">vector</tspan><tspan font-weight="400" font-size="19" x="-53.5" y="71">space</tspan><tspan font-weight="400" font-size="19" x="1.33331" y="71">with</tspan><tspan font-weight="400" font-size="19" x="39.6666" y="71">ordinal </tspan><tspan font-weight="400" font-size="19" x="100.667" y="71">scale</tspan><tspan font-weight="400" font-size="19" x="149.333" y="71">for</tspan><tspan font-weight="400" font-size="19" x="-53.5" y="93">values</tspan><tspan font-weight="400" font-size="19" x="5.5" y="93">1 </tspan><tspan font-weight="400" font-size="19" x="21" y="93">to</tspan><tspan font-weight="400" font-size="19" x="41.6666" y="93">5 </tspan></text><path d="M665 589 703.343 589 703.343 593 665 593ZM701.343 585 713.343 591 701.343 597Z"/><path d="M917 288.834C917 274.014 929.014 262 943.834 262L1229.17 262C1243.99 262 1256 274.014 1256 288.834L1256 396.166C1256 410.986 1243.99 423 1229.17 423L943.834 423C929.014 423 917 410.986 917 396.166Z" fill="#A9D18E" fill-rule="evenodd"/><text font-family="Arial,Arial_MSFontService,sans-serif" font-weight="700" font-size="21" transform="translate(952.459 293)">Scores <tspan x="76.9999" y="0">for</tspan><tspan x="111.5" y="0">B2B </tspan>customers<tspan font-weight="400" font-size="19" x="-17.7467" y="48">For</tspan><tspan font-weight="400" font-size="19" x="15.2533" y="48">existing</tspan><tspan font-weight="400" font-size="19" x="83.5866" y="48">B2B </tspan><tspan font-weight="400" font-size="19" x="124.087" y="48">customers</tspan><tspan font-weight="400" font-size="19" x="215.087" y="48">the</tspan><tspan font-weight="400" font-size="19" x="-17.7467" y="71">RFM </tspan><tspan font-weight="400" font-size="19" x="27.7533" y="71">scores</tspan><tspan font-weight="400" font-size="19" x="87.7534" y="71">are</tspan><tspan font-weight="400" font-size="19" x="119.753" y="71">calcuted</tspan><tspan font-weight="400" font-size="19" x="194.253" y="71">based</tspan><tspan font-weight="400" font-size="19" x="250.087" y="71">on </tspan><tspan font-weight="400" font-size="19" x="-17.7467" y="93">past</tspan><tspan font-weight="400" font-size="19" x="22.5867" y="93">data</tspan><tspan font-weight="400" font-size="19" x="63.92" y="93">and </tspan><tspan font-weight="400" font-size="19" x="100.087" y="93">for</tspan><tspan font-weight="400" font-size="19" x="126.92" y="93">new</tspan><tspan font-weight="400" font-size="19" x="166.253" y="93">ones</tspan><tspan font-weight="400" font-size="19" x="211.753" y="93">a </tspan><tspan font-weight="400" font-size="19" x="-17.7467" y="116">predicted</tspan><tspan font-weight="400" font-size="19" x="63.92" y="116">score </tspan><tspan font-weight="400" font-size="19" x="114.587" y="116">is</tspan><tspan font-weight="400" font-size="19" x="133.253" y="116">taken</tspan><tspan font-weight="400" font-size="19" x="178.753" y="116">.</tspan></text><path d="M978 126 1088.11 126 1088.11 252.174 1084.11 252.174 1084.11 128 1086.11 130 978 130ZM1092.11 250.174 1086.11 262.174 1080.11 250.174Z" fill="#767171"/><path d="M0-2 110.114-2 110.114 158.001 106.114 158.001 106.114 0 108.114 2 0 2ZM114.114 156.001 108.114 168.001 102.114 156.001Z" transform="matrix(1 0 0 -1 978 591.001)"/><rect x="37" y="48" width="265" height="160" fill="#B4C7E7"/><text font-family="Arial,Arial_MSFontService,sans-serif" font-weight="700" font-size="21" transform="translate(106.751 101)">Input <tspan x="58.1667" y="0">Object</tspan><tspan font-weight="400" font-size="19" x="-60.58" y="48">Object</tspan><tspan font-weight="400" font-size="19" x="-1.57999" y="48">containing</tspan><tspan font-weight="400" font-size="19" x="88.42" y="48">selle</tspan><tspan font-weight="400" font-size="19" x="126.753" y="48">r</tspan><tspan font-weight="400" font-size="19" x="138.087" y="48">data</tspan><tspan font-weight="400" font-size="19" x="-60.58" y="71">in </tspan><tspan font-weight="400" font-size="19" x="-40.9133" y="71">a n</tspan><tspan font-weight="400" font-size="19" x="-15.08" y="71">-</tspan><tspan font-weight="400" font-size="19" x="-8.91333" y="71">dimensional </tspan><tspan font-weight="400" font-size="19" x="95.5867" y="71">space</tspan></text><path d="M301 126 342.314 126 342.314 130 301 130ZM340.314 122 352.314 128 340.314 134Z" fill="#767171"/><path d="M301 154 342.314 154 342.314 158 301 158ZM340.314 150 352.314 156 340.314 162Z"/><path d="M664 164 705.314 164 705.314 168 664 168ZM703.314 160 715.314 166 703.314 172Z"/><g clip-path="url(#clip2)"><g clip-path="url(#clip3)" filter="url(#fx0)" transform="translate(31 266)"><g clip-path="url(#clip4)"><rect x="8.82843" y="8.82843" width="264" height="153" stroke="#000000" stroke-width="4" stroke-miterlimit="8" fill="#F2F2F2"/></g></g></g><rect x="37" y="272" width="264" height="153" stroke="#000000" stroke-width="4" stroke-miterlimit="8" fill="#F2F2F2"/><text font-family="Arial,Arial_MSFontService,sans-serif" font-weight="700" font-size="21" transform="translate(98.6722 304)">DATAFLOWS</text><path d="M49.0086 331 78.7798 331.128 78.7626 335.128 48.9914 335ZM76.7971 327.12 88.7711 333.172 76.7454 339.12Z" fill="#767171"/><path d="M49.0604 373.001 78.836 373.9 78.7153 377.898 48.9396 376.999ZM76.9577 369.841 88.7711 376.201 76.5955 381.836Z"/><text font-family="Arial,Arial_MSFontService,sans-serif" font-weight="400" font-size="16" transform="translate(98.1713 340)">Flow<tspan x="38.1667" y="0">for</tspan><tspan x="61.3333" y="0">existing</tspan><tspan x="119.833" y="0">partner</tspan>s<tspan x="-0.0563812" y="42">Flow</tspan><tspan x="38.1103" y="42">for</tspan><tspan x="61.2769" y="42">new</tspan><tspan x="94.9436" y="42">partner</tspan>s</text></g></svg>