<svg width="1222" height="603" xmlns="http://www.w3.org/2000/svg" xmlns:xlink="http://www.w3.org/1999/xlink" overflow="hidden"><defs><clipPath id="clip0"><rect x="34" y="47" width="1222" height="603"/></clipPath></defs><g clip-path="url(#clip0)" transform="translate(-34 -47)"><rect x="37" y="48" width="265" height="161" fill="#B4C7E7"/><text font-family="Arial,Arial_MSFontService,sans-serif" font-weight="700" font-size="21" transform="translate(100.838 90)">Input Objects<tspan font-weight="400" font-size="19" x="-54.6667" y="48">Objects </tspan><tspan font-weight="400" font-size="19" x="13.6667" y="48">containing</tspan><tspan font-weight="400" font-size="19" x="103.667" y="48">order</tspan><tspan font-weight="400" font-size="19" x="152.167" y="48">data</tspan><tspan font-weight="400" font-size="19" x="-54.6667" y="71">for</tspan><tspan font-weight="400" font-size="19" x="-27.8333" y="71">one</tspan><tspan font-weight="400" font-size="19" x="8.33334" y="71">or</tspan><tspan font-weight="400" font-size="19" x="30" y="71">more</tspan><tspan font-weight="400" font-size="19" x="77.5" y="71">products</tspan><tspan font-weight="400" font-size="19" x="154" y="71">in a </tspan><tspan font-weight="400" font-size="19" x="-54.6667" y="93">n</tspan><tspan font-weight="400" font-size="19" x="-44.3333" y="93">-</tspan><tspan font-weight="400" font-size="19" x="-38.1667" y="93">dimensional </tspan><tspan font-weight="400" font-size="19" x="66.3333" y="93">space</tspan></text><path d="M353 74.6671C353 59.9393 364.939 48 379.667 48L638.333 48C653.061 48 665 59.9393 665 74.6671L665 181.333C665 196.061 653.061 208 638.333 208L379.667 208C364.939 208 353 196.061 353 181.333Z" fill="#A9D18E" fill-rule="evenodd"/><text font-family="Arial,Arial_MSFontService,sans-serif" font-weight="700" font-size="21" transform="translate(375.064 79)">Calculation<tspan x="121" y="0">of</tspan><tspan x="147.167" y="0">RFM </tspan><tspan x="199.333" y="0">scores</tspan><tspan font-weight="400" font-size="19" x="-4.57999" y="48">Based</tspan><tspan font-weight="400" font-size="19" x="53.42" y="48">on </tspan><tspan font-weight="400" font-size="19" x="79.2533" y="48">input</tspan><tspan font-weight="400" font-size="19" x="124.753" y="48">features</tspan><tspan font-weight="400" font-size="19" x="197.087" y="48">the</tspan><tspan font-weight="400" font-size="19" x="-4.57999" y="71">individual R/F/M</tspan><tspan font-weight="400" font-size="19" x="128.92" y="71">-</tspan><tspan font-weight="400" font-size="19" x="135.087" y="71">Dimensions</tspan><tspan font-weight="400" font-size="19" x="237.587" y="71">are</tspan><tspan font-weight="400" font-size="19" x="-4.57999" y="93">calculated</tspan><tspan font-weight="400" font-size="19" x="84.42" y="93">and </tspan><tspan font-weight="400" font-size="19" x="120.587" y="93">aggregated</tspan><tspan font-weight="400" font-size="19" x="219.753" y="93">into</tspan><tspan font-weight="400" font-size="19" x="-4.57999" y="116">target</tspan><tspan font-weight="400" font-size="19" x="48.0867" y="116">variable RFM score</tspan></text><rect x="37" y="262" width="265" height="161" fill="#B4C7E7"/><text font-family="Arial,Arial_MSFontService,sans-serif" font-weight="700" font-size="21" transform="translate(100.838 293)">Input Objects<tspan font-weight="400" font-size="19" x="-54.6667" y="48">Objects </tspan><tspan font-weight="400" font-size="19" x="13.6667" y="48">containing</tspan><tspan font-weight="400" font-size="19" x="103.667" y="48">marketing</tspan><tspan font-weight="400" font-size="19" x="-54.6667" y="71">lead</tspan><tspan font-weight="400" font-size="19" x="-14.3333" y="71">data</tspan><tspan font-weight="400" font-size="19" x="27" y="71">for</tspan><tspan font-weight="400" font-size="19" x="53.8333" y="71">multiple </tspan><tspan font-weight="400" font-size="19" x="123.167" y="71">sellers</tspan><tspan font-weight="400" font-size="19" x="-54.6667" y="93">in a n</tspan><tspan font-weight="400" font-size="19" x="-9.16666" y="93">-</tspan><tspan font-weight="400" font-size="19" x="-3" y="93">dimensional </tspan><tspan font-weight="400" font-size="19" x="101.5" y="93">topological</tspan><tspan font-weight="400" font-size="19" x="-54.6667" y="116">space</tspan></text><rect x="713" y="48" width="265" height="160" fill="#B4C7E7"/><text font-family="Arial,Arial_MSFontService,sans-serif" font-weight="700" font-size="21" transform="translate(781.656 101)">Score <tspan x="65.1667" y="0">object</tspan><tspan font-weight="400" font-size="19" x="-58.9133" y="48">RFM score </tspan><tspan font-weight="400" font-size="19" x="37.2533" y="48">as</tspan><tspan font-weight="400" font-size="19" x="62.0867" y="48">1</tspan><tspan font-weight="400" font-size="19" x="72.42" y="48">-</tspan><tspan font-weight="400" font-size="19" x="78.5867" y="48">dimensional </tspan><tspan font-weight="400" font-size="19" x="-58.9133" y="71">vector</tspan><tspan font-weight="400" font-size="19" x="-3.08002" y="71">space</tspan></text><path d="M351 288.834C351 274.014 363.014 262 377.834 262L637.166 262C651.986 262 664 274.014 664 288.834L664 396.166C664 410.986 651.986 423 637.166 423L377.834 423C363.014 423 351 410.986 351 396.166Z" fill="#A9D18E" fill-rule="evenodd"/><text font-family="Arial,Arial_MSFontService,sans-serif" font-weight="700" font-size="21" transform="translate(411.349 293)">Recode<tspan x="82.8333" y="0">of</tspan><tspan x="109" y="0">features</tspan><tspan font-weight="400" font-size="19" x="-42.58" y="48">Multiple </tspan><tspan font-weight="400" font-size="19" x="26.7533" y="48">seller</tspan><tspan font-weight="400" font-size="19" x="76.42" y="48">features</tspan><tspan font-weight="400" font-size="19" x="148.753" y="48">are</tspan><tspan font-weight="400" font-size="19" x="-42.58" y="71">recoded</tspan><tspan font-weight="400" font-size="19" x="29.7533" y="71">into</tspan><tspan font-weight="400" font-size="19" x="64.92" y="71">boolean</tspan><tspan font-weight="400" font-size="19" x="136.253" y="71">variables </tspan><tspan font-weight="400" font-size="19" x="215.92" y="71">or</tspan><tspan font-weight="400" font-size="19" x="-42.58" y="93">count</tspan><tspan font-weight="400" font-size="19" x="8.08667" y="93">variables + </tspan><tspan font-weight="400" font-size="19" x="103.753" y="93">inner</tspan><tspan font-weight="400" font-size="19" x="150.253" y="93">join</tspan><tspan font-weight="400" font-size="19" x="184.42" y="93">of</tspan><tspan font-weight="400" font-size="19" x="-42.58" y="116">RFM score </tspan><tspan font-weight="400" font-size="19" x="53.5867" y="116">for</tspan><tspan font-weight="400" font-size="19" x="80.42" y="116">contained</tspan><tspan font-weight="400" font-size="19" x="166.253" y="116">sellers</tspan></text><path d="M0.0178524-1.99992 41.3323-1.63112 41.2966 2.36872-0.0178524 1.99992ZM39.368-5.64882 51.314 0.458058 39.2609 6.3507Z" transform="matrix(1 0 0 -1 302 128.458)"/><path d="M302 341 341.6 341 341.6 345 302 345ZM339.6 337 351.6 343 339.6 349Z"/><path d="M4.38488e-06-2 37.8859-1.99992 37.8859 2.00008-4.38488e-06 2ZM35.8859-5.99992 47.8859 0.000104987 35.8859 6.00008Z" transform="matrix(1 0 0 -1 665 128)"/><path d="M847.286 208 847.286 236.858 507 236.858 509 234.858 509 251.717 505 251.717 505 232.858 845.286 232.858 843.286 234.858 843.286 208ZM513 249.717 507 261.717 501 249.717Z"/><rect x="37" y="488" width="265" height="161" fill="#B4C7E7"/><text font-family="Arial,Arial_MSFontService,sans-serif" font-weight="700" font-size="21" transform="translate(93.1781 530)">Training object<tspan font-weight="400" font-size="19" x="-47.0067" y="48">Training </tspan><tspan font-weight="400" font-size="19" x="24.6333" y="48">data</tspan><tspan font-weight="400" font-size="19" x="65.9667" y="48">based</tspan><tspan font-weight="400" font-size="19" x="121.8" y="48">on </tspan><tspan font-weight="400" font-size="19" x="-47.0067" y="71">recoded</tspan><tspan font-weight="400" font-size="19" x="25.3267" y="71">features</tspan><tspan font-weight="400" font-size="19" x="97.66" y="71">for</tspan><tspan font-weight="400" font-size="19" x="124.493" y="71">sellers</tspan><tspan font-weight="400" font-size="19" x="183.493" y="71">in  </tspan><tspan font-weight="400" font-size="19" x="-47.0067" y="93">test</tspan><tspan font-weight="400" font-size="19" x="-17.0067" y="93">/</tspan><tspan font-weight="400" font-size="19" x="-11.84" y="93">train</tspan><tspan font-weight="400" font-size="19" x="29.4933" y="93">divided</tspan><tspan font-weight="400" font-size="19" x="93.66" y="93">subsets</tspan></text><path d="M351 514.834C351 500.014 363.014 488 377.834 488L637.166 488C651.986 488 664 500.014 664 514.834L664 622.166C664 636.986 651.986 649 637.166 649L377.834 649C363.014 649 351 636.986 351 622.166Z" fill="#A9D18E" fill-rule="evenodd"/><text font-family="Arial,Arial_MSFontService,sans-serif" font-weight="700" font-size="21" transform="translate(414.776 519)">Training <tspan x="88.9867" y="0">Classifier</tspan><tspan font-weight="400" font-size="19" x="-46.0067" y="48">Based</tspan><tspan font-weight="400" font-size="19" x="11.9933" y="48">on </tspan><tspan font-weight="400" font-size="19" x="37.8267" y="48">training</tspan><tspan font-weight="400" font-size="19" x="103.993" y="48">object</tspan><tspan font-weight="400" font-size="19" x="158.827" y="48">a </tspan><tspan font-weight="400" font-size="19" x="-46.0067" y="71">classification</tspan><tspan font-weight="400" font-size="19" x="64.8267" y="71">model</tspan><tspan font-weight="400" font-size="19" x="120.66" y="71">is</tspan><tspan font-weight="400" font-size="19" x="139.327" y="71">trained</tspan><tspan font-weight="400" font-size="19" x="201.327" y="71">by</tspan><tspan font-weight="400" font-size="19" x="-46.0067" y="93">using</tspan><tspan font-weight="400" font-size="19" x="3.66" y="93">RFM score </tspan><tspan font-weight="400" font-size="19" x="99.8267" y="93">as</tspan><tspan font-weight="400" font-size="19" x="124.66" y="93">target</tspan><tspan font-weight="400" font-size="19" x="-46.0067" y="116">variable (ordinal </tspan><tspan font-weight="400" font-size="19" x="91.4933" y="116">scale</tspan><tspan font-weight="400" font-size="19" x="134.993" y="116">)</tspan></text><path d="M509.286 423 509.286 457.344 169 457.344 171 455.344 171 477.687 167 477.687 167 453.344 507.286 453.344 505.286 455.344 505.286 423ZM175 475.687 169 487.687 163 475.687Z"/><path d="M302 566 341.6 566 341.6 570 302 570ZM339.6 562 351.6 568 339.6 574Z"/><rect x="713" y="488" width="265" height="161" fill="#B4C7E7"/><text font-family="Arial,Arial_MSFontService,sans-serif" font-weight="700" font-size="21" transform="translate(776.242 530)">Output object<tspan font-weight="400" font-size="19" x="-53.5" y="48">Transformation </tspan><tspan font-weight="400" font-size="19" x="75.9733" y="48">into</tspan><tspan font-weight="400" font-size="19" x="111.14" y="48">vector</tspan><tspan font-weight="400" font-size="19" x="-53.5" y="71">space</tspan><tspan font-weight="400" font-size="19" x="1.33331" y="71">with</tspan><tspan font-weight="400" font-size="19" x="39.6666" y="71">ordinal </tspan><tspan font-weight="400" font-size="19" x="100.667" y="71">scale</tspan><tspan font-weight="400" font-size="19" x="149.333" y="71">for</tspan><tspan font-weight="400" font-size="19" x="-53.5" y="93">values</tspan><tspan font-weight="400" font-size="19" x="5.5" y="93">1 </tspan><tspan font-weight="400" font-size="19" x="21" y="93">to</tspan><tspan font-weight="400" font-size="19" x="41.6666" y="93">5 </tspan></text><path d="M4.23336e-06-2 39.5998-1.99992 39.5998 2.00008-4.23336e-06 2ZM37.5998-5.99992 49.5998 0.000104987 37.5998 6.00008Z" transform="matrix(1 0 0 -1 664 568)"/><path d="M917 288.834C917 274.014 929.014 262 943.834 262L1229.17 262C1243.99 262 1256 274.014 1256 288.834L1256 396.166C1256 410.986 1243.99 423 1229.17 423L943.834 423C929.014 423 917 410.986 917 396.166Z" fill="#A9D18E" fill-rule="evenodd"/><text font-family="Arial,Arial_MSFontService,sans-serif" font-weight="700" font-size="21" transform="translate(952.459 293)">Scores <tspan x="76.9999" y="0">for</tspan><tspan x="111.5" y="0">B2B </tspan>customers<tspan font-weight="400" font-size="19" x="-17.7467" y="48">For</tspan><tspan font-weight="400" font-size="19" x="15.2533" y="48">existing</tspan><tspan font-weight="400" font-size="19" x="83.5866" y="48">B2B </tspan><tspan font-weight="400" font-size="19" x="124.087" y="48">customers</tspan><tspan font-weight="400" font-size="19" x="215.087" y="48">the</tspan><tspan font-weight="400" font-size="19" x="-17.7467" y="71">RFM </tspan><tspan font-weight="400" font-size="19" x="27.7533" y="71">scores</tspan><tspan font-weight="400" font-size="19" x="87.7534" y="71">are</tspan><tspan font-weight="400" font-size="19" x="119.753" y="71">calcuted</tspan><tspan font-weight="400" font-size="19" x="194.253" y="71">based</tspan><tspan font-weight="400" font-size="19" x="250.087" y="71">on </tspan><tspan font-weight="400" font-size="19" x="-17.7467" y="93">past</tspan><tspan font-weight="400" font-size="19" x="22.5867" y="93">data</tspan><tspan font-weight="400" font-size="19" x="63.92" y="93">and </tspan><tspan font-weight="400" font-size="19" x="100.087" y="93">for</tspan><tspan font-weight="400" font-size="19" x="126.92" y="93">new</tspan><tspan font-weight="400" font-size="19" x="166.253" y="93">ones</tspan><tspan font-weight="400" font-size="19" x="211.753" y="93">a </tspan><tspan font-weight="400" font-size="19" x="-17.7467" y="116">predicted</tspan><tspan font-weight="400" font-size="19" x="63.92" y="116">score </tspan><tspan font-weight="400" font-size="19" x="114.587" y="116">is</tspan><tspan font-weight="400" font-size="19" x="133.253" y="116">taken</tspan><tspan font-weight="400" font-size="19" x="178.753" y="116">.</tspan></text><path d="M978 126 1088.11 126 1088.11 252.174 1084.11 252.174 1084.11 128 1086.11 130 978 130ZM1092.11 250.174 1086.11 262.174 1080.11 250.174Z"/><path d="M0-2 110.114-2 110.114 135.144 106.114 135.144 106.114 0 108.114 2 0 2ZM114.114 133.144 108.114 145.144 102.114 133.144Z" transform="matrix(1 0 0 -1 978 568.144)"/></g></svg>